<?xml version="1.0" encoding="utf-8" standalone="no"?>
<!DOCTYPE svg PUBLIC "-//W3C//DTD SVG 1.1//EN"
  "http://www.w3.org/Graphics/SVG/1.1/DTD/svg11.dtd">
<svg xmlns:xlink="http://www.w3.org/1999/xlink" width="288pt" height="216pt" viewBox="0 0 288 216" xmlns="http://www.w3.org/2000/svg" version="1.1">
 <metadata>
  <rdf:RDF xmlns:dc="http://purl.org/dc/elements/1.1/" xmlns:cc="http://creativecommons.org/ns#" xmlns:rdf="http://www.w3.org/1999/02/22-rdf-syntax-ns#">
   <cc:Work>
    <dc:type rdf:resource="http://purl.org/dc/dcmitype/StillImage"/>
    <dc:date>2025-10-24T15:17:38.399534</dc:date>
    <dc:format>image/svg+xml</dc:format>
    <dc:creator>
     <cc:Agent>
      <dc:title>Matplotlib v3.10.1, https://matplotlib.org/</dc:title>
     </cc:Agent>
    </dc:creator>
   </cc:Work>
  </rdf:RDF>
 </metadata>
 <defs>
  <style type="text/css">*{stroke-linejoin: round; stroke-linecap: butt}</style>
 </defs>
 <g id="figure_1">
  <g id="patch_1">
   <path d="M 0 216 
L 288 216 
L 288 0 
L 0 0 
L 0 216 
z
" style="fill: none"/>
  </g>
  <g id="axes_1">
   <g id="patch_2">
    <path d="M 52.989471 137.679435 
L 276.12 137.679435 
L 276.12 11.88 
L 52.989471 11.88 
L 52.989471 137.679435 
z
" style="fill: none"/>
   </g>
   <g id="matplotlib.axis_1">
    <g id="xtick_1">
     <g id="line2d_1">
      <path d="M 63.131768 137.679435 
L 63.131768 11.88 
" clip-path="url(#p62ce0c8406)" style="fill: none; stroke: #b0b0b0; stroke-width: 0.8; stroke-linecap: square"/>
     </g>
     <g id="line2d_2">
      <defs>
       <path id="m7c0b08fd34" d="M 0 0 
L 0 3.5 
" style="stroke: #000000; stroke-width: 0.8"/>
      </defs>
      <g>
       <use xlink:href="#m7c0b08fd34" x="63.131768" y="137.679435" style="stroke: #000000; stroke-width: 0.8"/>
      </g>
     </g>
     <g id="text_1">
      <!-- BP01_ABK -->
      <g transform="translate(65.507122 196.076326) rotate(-90) scale(0.11 -0.11)">
       <defs>
        <path id="URWPalladioL-Roma-42" d="M 2163 4416 
C 1274 4416 1274 4416 1178 4416 
C 1056 4416 1056 4416 166 4416 
L 166 4236 
L 397 4217 
C 698 4191 723 4146 723 3643 
L 723 619 
C 723 384 672 243 582 205 
L 416 141 
L 416 0 
C 858 0 992 0 1114 0 
C 1184 0 1254 0 1331 0 
C 1843 0 1843 0 1907 0 
C 2374 0 2797 114 3085 324 
C 3462 590 3686 1022 3686 1467 
C 3686 1791 3558 2051 3315 2223 
C 3072 2401 2854 2458 2362 2496 
C 2675 2559 2822 2617 3002 2738 
C 3309 2947 3469 3221 3469 3552 
C 3469 4111 3066 4416 2323 4416 
L 2163 4416 
z
M 1331 2323 
C 1581 2323 1638 2323 1760 2323 
C 2624 2323 3027 2013 3027 1335 
C 3027 662 2586 263 1824 263 
C 1638 263 1491 276 1331 314 
L 1331 2323 
z
M 1331 4121 
C 1498 4159 1645 4172 1850 4172 
C 2534 4172 2835 3942 2835 3414 
C 2835 2859 2451 2560 1722 2560 
C 1613 2560 1530 2560 1331 2560 
L 1331 4121 
z
" transform="scale(0.015625)"/>
        <path id="URWPalladioL-Roma-50" d="M 1382 4116 
C 1606 4166 1792 4192 2010 4192 
C 2701 4192 3072 3875 3072 3273 
C 3072 2703 2682 2304 2125 2304 
C 1990 2304 1894 2317 1728 2367 
L 1792 2137 
C 1946 2105 2035 2099 2163 2099 
C 3040 2099 3712 2692 3712 3459 
C 3712 4071 3213 4448 2400 4448 
C 2368 4448 2304 4448 2221 4423 
C 1984 4423 1498 4423 1312 4423 
C 1171 4423 1171 4423 147 4423 
L 147 4224 
L 435 4224 
C 723 4224 774 4140 774 3663 
L 774 766 
C 774 256 742 205 448 205 
L 141 205 
L 141 0 
C 518 0 742 0 1075 0 
C 1408 0 1638 0 2016 0 
L 2016 205 
L 1709 205 
C 1414 205 1382 256 1382 764 
L 1382 4116 
z
" transform="scale(0.015625)"/>
        <path id="URWPalladioL-Roma-30" d="M 1683 4416 
C 691 4416 186 3628 186 2077 
C 186 1326 320 680 544 366 
C 768 51 1126 -128 1523 -128 
C 2490 -128 2976 705 2976 2346 
C 2976 3749 2560 4416 1683 4416 
z
M 1568 4192 
C 2189 4192 2438 3564 2438 2025 
C 2438 661 2195 96 1606 96 
C 986 96 723 744 723 2308 
C 723 3660 960 4192 1568 4192 
z
" transform="scale(0.015625)"/>
        <path id="URWPalladioL-Roma-31" d="M 429 3584 
L 493 3584 
L 1318 3956 
C 1325 3962 1331 3962 1338 3962 
C 1376 3962 1389 3905 1389 3751 
L 1389 613 
C 1389 276 1318 205 973 205 
L 614 205 
L 614 0 
C 1600 0 1600 0 1670 0 
C 1754 0 1894 0 2112 0 
C 2189 0 2413 0 2675 0 
L 2675 205 
L 2342 205 
C 1990 205 1926 276 1926 612 
L 1926 4443 
L 1837 4475 
C 1421 4257 966 4065 384 3860 
L 429 3584 
z
" transform="scale(0.015625)"/>
        <path id="URWPalladioL-Roma-41" d="M 2611 4512 
L 2406 4512 
C 2291 4235 2195 3998 2157 3902 
L 1818 3124 
L 678 522 
C 602 335 474 219 333 206 
L 96 187 
L 96 0 
C 691 0 691 0 794 0 
C 877 0 877 0 1568 0 
L 1568 187 
L 1331 206 
C 1107 226 1024 270 1024 371 
C 1024 454 1114 727 1248 1046 
L 1427 1472 
L 3270 1472 
L 3565 733 
C 3674 463 3699 379 3699 322 
C 3699 251 3597 206 3437 193 
L 3136 193 
L 3136 0 
C 3923 0 3923 0 4026 0 
C 4147 0 4147 0 4838 0 
L 4838 187 
L 4621 206 
C 4454 232 4384 341 4160 861 
L 2611 4512 
z
M 1536 1728 
L 2349 3653 
L 3155 1728 
L 1536 1728 
z
" transform="scale(0.015625)"/>
        <path id="URWPalladioL-Roma-4b" d="M 1382 2087 
L 1446 2132 
L 3674 0 
C 4122 0 4122 0 4186 0 
C 4269 0 4282 0 4602 0 
L 4602 186 
L 4467 199 
C 4371 199 4269 270 4070 455 
L 1958 2451 
L 3661 3987 
C 3834 4141 3994 4224 4160 4224 
L 4429 4224 
L 4429 4417 
C 4026 4417 4026 4417 3917 4417 
C 3827 4417 3718 4417 3347 4417 
L 3347 4256 
C 3347 4218 3264 4110 3162 4007 
L 1382 2278 
L 1382 3661 
C 1382 4172 1414 4224 1709 4224 
L 2016 4224 
L 2016 4417 
C 1549 4417 1408 4417 1075 4417 
C 755 4417 602 4417 141 4417 
L 141 4224 
L 448 4224 
C 742 4224 774 4172 774 3662 
L 774 761 
C 774 250 742 199 448 199 
L 141 199 
L 141 0 
C 518 0 742 0 1075 0 
C 1408 0 1638 0 2016 0 
L 2016 199 
L 1709 199 
C 1414 199 1382 250 1382 762 
L 1382 2087 
z
" transform="scale(0.015625)"/>
       </defs>
       <use xlink:href="#URWPalladioL-Roma-42" transform="scale(0.996264)"/>
       <use xlink:href="#URWPalladioL-Roma-50" transform="translate(60.871631 0) scale(0.996264)"/>
       <use xlink:href="#URWPalladioL-Roma-30" transform="translate(121.045226 0) scale(0.996264)"/>
       <use xlink:href="#URWPalladioL-Roma-31" transform="translate(170.858426 0) scale(0.996264)"/>
       <use xlink:href="#URWPalladioL-Roma-41" transform="translate(256.537192 0) scale(0.996264)"/>
       <use xlink:href="#URWPalladioL-Roma-42" transform="translate(334.045562 0) scale(0.996264)"/>
       <use xlink:href="#URWPalladioL-Roma-4b" transform="translate(394.917193 0) scale(0.996264)"/>
       <path d="M 226.648968 0 
L 256.537192 0 
L 256.537192 0.3985 
L 226.648968 0.3985 
L 226.648968 0 
z
"/>
      </g>
     </g>
    </g>
    <g id="xtick_2">
     <g id="line2d_3">
      <path d="M 76.65483 137.679435 
L 76.65483 11.88 
" clip-path="url(#p62ce0c8406)" style="fill: none; stroke: #b0b0b0; stroke-width: 0.8; stroke-linecap: square"/>
     </g>
     <g id="line2d_4">
      <g>
       <use xlink:href="#m7c0b08fd34" x="76.65483" y="137.679435" style="stroke: #000000; stroke-width: 0.8"/>
      </g>
     </g>
     <g id="text_2">
      <!-- BP04_ABK -->
      <g transform="translate(79.030185 196.076326) rotate(-90) scale(0.11 -0.11)">
       <defs>
        <path id="URWPalladioL-Roma-34" d="M 1792 1152 
L 1792 673 
C 1792 289 1722 199 1408 199 
L 1011 199 
L 1011 0 
C 1862 0 1862 0 2016 0 
C 2170 0 2170 0 3021 0 
L 3021 199 
L 2714 199 
C 2400 199 2330 282 2330 669 
L 2330 1152 
C 2707 1152 2842 1152 3021 1133 
L 3021 1588 
C 2720 1563 2598 1563 2502 1563 
L 2483 1563 
L 2330 1563 
L 2330 2457 
C 2330 3600 2342 4152 2374 4416 
L 2298 4448 
L 1824 4275 
L 13 1299 
L 83 1152 
L 1792 1152 
z
M 1792 1563 
L 416 1563 
L 1792 3826 
L 1792 1563 
z
" transform="scale(0.015625)"/>
       </defs>
       <use xlink:href="#URWPalladioL-Roma-42" transform="scale(0.996264)"/>
       <use xlink:href="#URWPalladioL-Roma-50" transform="translate(60.871631 0) scale(0.996264)"/>
       <use xlink:href="#URWPalladioL-Roma-30" transform="translate(121.045226 0) scale(0.996264)"/>
       <use xlink:href="#URWPalladioL-Roma-34" transform="translate(170.858426 0) scale(0.996264)"/>
       <use xlink:href="#URWPalladioL-Roma-41" transform="translate(256.537192 0) scale(0.996264)"/>
       <use xlink:href="#URWPalladioL-Roma-42" transform="translate(334.045562 0) scale(0.996264)"/>
       <use xlink:href="#URWPalladioL-Roma-4b" transform="translate(394.917193 0) scale(0.996264)"/>
       <path d="M 226.648968 0 
L 256.537192 0 
L 256.537192 0.3985 
L 226.648968 0.3985 
L 226.648968 0 
z
"/>
      </g>
     </g>
    </g>
    <g id="xtick_3">
     <g id="line2d_5">
      <path d="M 90.177893 137.679435 
L 90.177893 11.88 
" clip-path="url(#p62ce0c8406)" style="fill: none; stroke: #b0b0b0; stroke-width: 0.8; stroke-linecap: square"/>
     </g>
     <g id="line2d_6">
      <g>
       <use xlink:href="#m7c0b08fd34" x="90.177893" y="137.679435" style="stroke: #000000; stroke-width: 0.8"/>
      </g>
     </g>
     <g id="text_3">
      <!-- BP07_ABK -->
      <g transform="translate(92.553247 196.076326) rotate(-90) scale(0.11 -0.11)">
       <defs>
        <path id="URWPalladioL-Roma-37" d="M 358 32 
L 416 -51 
C 666 -32 666 -32 710 -32 
C 755 -32 755 -32 1005 -51 
C 1274 649 1587 1317 2010 2087 
L 3181 4199 
L 3181 4372 
C 2490 4372 2266 4372 1747 4372 
C 1280 4372 966 4372 346 4372 
L 282 4359 
C 301 3750 301 3750 301 3685 
C 301 3614 301 3614 282 3031 
L 474 3031 
L 518 3390 
C 570 3789 614 3840 909 3840 
L 2618 3840 
C 2362 3313 2163 2941 1920 2549 
L 358 32 
z
" transform="scale(0.015625)"/>
       </defs>
       <use xlink:href="#URWPalladioL-Roma-42" transform="scale(0.996264)"/>
       <use xlink:href="#URWPalladioL-Roma-50" transform="translate(60.871631 0) scale(0.996264)"/>
       <use xlink:href="#URWPalladioL-Roma-30" transform="translate(121.045226 0) scale(0.996264)"/>
       <use xlink:href="#URWPalladioL-Roma-37" transform="translate(170.858426 0) scale(0.996264)"/>
       <use xlink:href="#URWPalladioL-Roma-41" transform="translate(256.537192 0) scale(0.996264)"/>
       <use xlink:href="#URWPalladioL-Roma-42" transform="translate(334.045562 0) scale(0.996264)"/>
       <use xlink:href="#URWPalladioL-Roma-4b" transform="translate(394.917193 0) scale(0.996264)"/>
       <path d="M 226.648968 0 
L 256.537192 0 
L 256.537192 0.3985 
L 226.648968 0.3985 
L 226.648968 0 
z
"/>
      </g>
     </g>
    </g>
    <g id="xtick_4">
     <g id="line2d_7">
      <path d="M 103.700955 137.679435 
L 103.700955 11.88 
" clip-path="url(#p62ce0c8406)" style="fill: none; stroke: #b0b0b0; stroke-width: 0.8; stroke-linecap: square"/>
     </g>
     <g id="line2d_8">
      <g>
       <use xlink:href="#m7c0b08fd34" x="103.700955" y="137.679435" style="stroke: #000000; stroke-width: 0.8"/>
      </g>
     </g>
     <g id="text_4">
      <!-- BP11_ABK -->
      <g transform="translate(106.076309 196.076326) rotate(-90) scale(0.11 -0.11)">
       <use xlink:href="#URWPalladioL-Roma-42" transform="scale(0.996264)"/>
       <use xlink:href="#URWPalladioL-Roma-50" transform="translate(60.871631 0) scale(0.996264)"/>
       <use xlink:href="#URWPalladioL-Roma-31" transform="translate(121.045226 0) scale(0.996264)"/>
       <use xlink:href="#URWPalladioL-Roma-31" transform="translate(170.858426 0) scale(0.996264)"/>
       <use xlink:href="#URWPalladioL-Roma-41" transform="translate(256.537192 0) scale(0.996264)"/>
       <use xlink:href="#URWPalladioL-Roma-42" transform="translate(334.045562 0) scale(0.996264)"/>
       <use xlink:href="#URWPalladioL-Roma-4b" transform="translate(394.917193 0) scale(0.996264)"/>
       <path d="M 226.648968 0 
L 256.537192 0 
L 256.537192 0.3985 
L 226.648968 0.3985 
L 226.648968 0 
z
"/>
      </g>
     </g>
    </g>
    <g id="xtick_5">
     <g id="line2d_9">
      <path d="M 117.224017 137.679435 
L 117.224017 11.88 
" clip-path="url(#p62ce0c8406)" style="fill: none; stroke: #b0b0b0; stroke-width: 0.8; stroke-linecap: square"/>
     </g>
     <g id="line2d_10">
      <g>
       <use xlink:href="#m7c0b08fd34" x="117.224017" y="137.679435" style="stroke: #000000; stroke-width: 0.8"/>
      </g>
     </g>
     <g id="text_5">
      <!-- BP1T_ABK -->
      <g transform="translate(119.599372 197.314542) rotate(-90) scale(0.11 -0.11)">
       <defs>
        <path id="URWPalladioL-Roma-54" d="M 1632 4114 
C 1651 3896 1658 3749 1658 3473 
L 1658 763 
C 1658 256 1626 205 1331 205 
L 1024 205 
L 1024 0 
C 1402 0 1626 0 1958 0 
C 2291 0 2522 0 2899 0 
L 2899 205 
L 2592 205 
C 2298 205 2266 256 2266 763 
L 2266 3473 
C 2266 3762 2272 3903 2291 4114 
L 3283 4114 
C 3462 4114 3533 4057 3539 3904 
L 3565 3400 
L 3763 3400 
C 3763 3810 3776 4056 3808 4416 
C 3347 4416 3136 4416 2957 4416 
C 2707 4416 2522 4416 2426 4416 
L 1414 4416 
C 1350 4416 1005 4416 550 4416 
L 115 4416 
C 147 4056 160 3810 160 3400 
L 358 3400 
L 384 3904 
C 390 4057 461 4114 640 4114 
L 1632 4114 
z
" transform="scale(0.015625)"/>
       </defs>
       <use xlink:href="#URWPalladioL-Roma-42" transform="scale(0.996264)"/>
       <use xlink:href="#URWPalladioL-Roma-50" transform="translate(60.871631 0) scale(0.996264)"/>
       <use xlink:href="#URWPalladioL-Roma-31" transform="translate(121.045226 0) scale(0.996264)"/>
       <use xlink:href="#URWPalladioL-Roma-54" transform="translate(170.858426 0) scale(0.996264)"/>
       <use xlink:href="#URWPalladioL-Roma-41" transform="translate(267.793823 0) scale(0.996264)"/>
       <use xlink:href="#URWPalladioL-Roma-42" transform="translate(345.302193 0) scale(0.996264)"/>
       <use xlink:href="#URWPalladioL-Roma-4b" transform="translate(406.173824 0) scale(0.996264)"/>
       <path d="M 237.905599 0 
L 267.793823 0 
L 267.793823 0.3985 
L 237.905599 0.3985 
L 237.905599 0 
z
"/>
      </g>
     </g>
    </g>
    <g id="xtick_6">
     <g id="line2d_11">
      <path d="M 130.74708 137.679435 
L 130.74708 11.88 
" clip-path="url(#p62ce0c8406)" style="fill: none; stroke: #b0b0b0; stroke-width: 0.8; stroke-linecap: square"/>
     </g>
     <g id="line2d_12">
      <g>
       <use xlink:href="#m7c0b08fd34" x="130.74708" y="137.679435" style="stroke: #000000; stroke-width: 0.8"/>
      </g>
     </g>
     <g id="text_6">
      <!-- BP4T_ABK -->
      <g transform="translate(133.122434 197.314542) rotate(-90) scale(0.11 -0.11)">
       <use xlink:href="#URWPalladioL-Roma-42" transform="scale(0.996264)"/>
       <use xlink:href="#URWPalladioL-Roma-50" transform="translate(60.871631 0) scale(0.996264)"/>
       <use xlink:href="#URWPalladioL-Roma-34" transform="translate(121.045226 0) scale(0.996264)"/>
       <use xlink:href="#URWPalladioL-Roma-54" transform="translate(170.858426 0) scale(0.996264)"/>
       <use xlink:href="#URWPalladioL-Roma-41" transform="translate(267.793823 0) scale(0.996264)"/>
       <use xlink:href="#URWPalladioL-Roma-42" transform="translate(345.302193 0) scale(0.996264)"/>
       <use xlink:href="#URWPalladioL-Roma-4b" transform="translate(406.173824 0) scale(0.996264)"/>
       <path d="M 237.905599 0 
L 267.793823 0 
L 267.793823 0.3985 
L 237.905599 0.3985 
L 237.905599 0 
z
"/>
      </g>
     </g>
    </g>
    <g id="xtick_7">
     <g id="line2d_13">
      <path d="M 144.270142 137.679435 
L 144.270142 11.88 
" clip-path="url(#p62ce0c8406)" style="fill: none; stroke: #b0b0b0; stroke-width: 0.8; stroke-linecap: square"/>
     </g>
     <g id="line2d_14">
      <g>
       <use xlink:href="#m7c0b08fd34" x="144.270142" y="137.679435" style="stroke: #000000; stroke-width: 0.8"/>
      </g>
     </g>
     <g id="text_7">
      <!-- BP02_GHK -->
      <g transform="translate(146.645497 198.333791) rotate(-90) scale(0.11 -0.11)">
       <defs>
        <path id="URWPalladioL-Roma-32" d="M 102 160 
L 102 0 
C 1299 0 1299 0 1530 0 
C 1760 0 1760 0 2995 0 
C 2982 125 2982 186 2982 269 
C 2982 348 2982 407 2995 539 
C 2259 539 1965 539 781 539 
L 1946 1761 
C 2566 2414 2758 2763 2758 3238 
C 2758 3966 2259 4416 1446 4416 
C 986 4416 672 4288 358 3969 
L 250 3099 
L 435 3099 
L 518 3393 
C 621 3763 851 3923 1280 3923 
C 1830 3923 2182 3577 2182 3035 
C 2182 2555 1914 2083 1190 1316 
L 102 160 
z
" transform="scale(0.015625)"/>
        <path id="URWPalladioL-Roma-47" d="M 4102 3307 
L 4301 3307 
C 4301 3633 4339 3934 4429 4280 
C 3718 4486 3392 4544 2880 4544 
C 1229 4544 141 3608 141 2186 
C 141 1538 358 961 762 571 
C 1203 128 1894 -128 2637 -128 
C 3091 -128 3533 -45 4403 199 
L 4403 1274 
C 4403 1473 4410 1486 4474 1511 
L 4659 1576 
L 4634 1730 
C 4064 1730 4045 1730 3846 1730 
C 3661 1730 3622 1730 3066 1730 
L 3066 1544 
L 3597 1500 
C 3757 1487 3814 1429 3814 1275 
L 3814 628 
C 3814 475 3802 398 3776 353 
C 3706 231 3322 141 2899 141 
C 1632 141 826 987 826 2319 
C 826 3556 1517 4274 2714 4274 
C 3046 4274 3328 4236 3571 4159 
C 3942 4037 4102 3890 4102 3647 
L 4102 3307 
z
" transform="scale(0.015625)"/>
        <path id="URWPalladioL-Roma-48" d="M 3942 773 
C 3942 257 3910 205 3616 205 
L 3309 205 
L 3309 0 
C 3686 0 3910 0 4243 0 
C 4576 0 4806 0 5184 0 
L 5184 205 
L 4877 205 
C 4582 205 4550 256 4550 766 
L 4550 3663 
C 4550 4172 4582 4224 4877 4224 
L 5184 4224 
L 5184 4423 
C 4717 4423 4576 4423 4243 4423 
C 3923 4423 3770 4423 3309 4423 
L 3309 4224 
L 3616 4224 
C 3910 4224 3942 4172 3942 3668 
L 3942 2529 
C 3808 2529 3674 2529 3411 2529 
L 1914 2529 
C 1651 2529 1510 2529 1382 2529 
L 1382 3668 
C 1382 4172 1414 4224 1709 4224 
L 2016 4224 
L 2016 4423 
C 1549 4423 1408 4423 1075 4423 
C 755 4423 602 4423 141 4423 
L 141 4224 
L 448 4224 
C 742 4224 774 4172 774 3663 
L 774 766 
C 774 256 742 205 448 205 
L 141 205 
L 141 0 
C 518 0 742 0 1075 0 
C 1408 0 1638 0 2016 0 
L 2016 205 
L 1709 205 
C 1414 205 1382 257 1382 773 
L 1382 2227 
C 1555 2240 1658 2240 1914 2240 
L 3411 2240 
C 3667 2240 3770 2240 3942 2227 
L 3942 773 
z
" transform="scale(0.015625)"/>
       </defs>
       <use xlink:href="#URWPalladioL-Roma-42" transform="scale(0.996264)"/>
       <use xlink:href="#URWPalladioL-Roma-50" transform="translate(60.871631 0) scale(0.996264)"/>
       <use xlink:href="#URWPalladioL-Roma-30" transform="translate(121.045226 0) scale(0.996264)"/>
       <use xlink:href="#URWPalladioL-Roma-32" transform="translate(170.858426 0) scale(0.996264)"/>
       <use xlink:href="#URWPalladioL-Roma-47" transform="translate(256.537192 0) scale(0.996264)"/>
       <use xlink:href="#URWPalladioL-Roma-48" transform="translate(332.550938 0) scale(0.996264)"/>
       <use xlink:href="#URWPalladioL-Roma-4b" transform="translate(415.439599 0) scale(0.996264)"/>
       <path d="M 226.648968 0 
L 256.537192 0 
L 256.537192 0.3985 
L 226.648968 0.3985 
L 226.648968 0 
z
"/>
      </g>
     </g>
    </g>
    <g id="xtick_8">
     <g id="line2d_15">
      <path d="M 157.793204 137.679435 
L 157.793204 11.88 
" clip-path="url(#p62ce0c8406)" style="fill: none; stroke: #b0b0b0; stroke-width: 0.8; stroke-linecap: square"/>
     </g>
     <g id="line2d_16">
      <g>
       <use xlink:href="#m7c0b08fd34" x="157.793204" y="137.679435" style="stroke: #000000; stroke-width: 0.8"/>
      </g>
     </g>
     <g id="text_8">
      <!-- BP06_GHK -->
      <g transform="translate(160.168559 198.333791) rotate(-90) scale(0.11 -0.11)">
       <defs>
        <path id="URWPalladioL-Roma-36" d="M 2662 4310 
L 2426 4419 
C 1811 4214 1549 4086 1222 3804 
C 563 3246 205 2464 205 1585 
C 205 526 717 -128 1542 -128 
C 2374 -128 2995 532 2995 1405 
C 2995 2143 2554 2624 1875 2624 
C 1555 2624 1363 2540 986 2239 
C 915 2181 909 2175 838 2124 
C 973 3284 1510 3913 2662 4259 
L 2662 4310 
z
M 1632 2239 
C 2118 2239 2445 1816 2445 1181 
C 2445 513 2118 83 1626 83 
C 1082 83 787 551 787 1412 
C 787 1636 813 1758 883 1867 
C 1024 2085 1325 2239 1632 2239 
z
" transform="scale(0.015625)"/>
       </defs>
       <use xlink:href="#URWPalladioL-Roma-42" transform="scale(0.996264)"/>
       <use xlink:href="#URWPalladioL-Roma-50" transform="translate(60.871631 0) scale(0.996264)"/>
       <use xlink:href="#URWPalladioL-Roma-30" transform="translate(121.045226 0) scale(0.996264)"/>
       <use xlink:href="#URWPalladioL-Roma-36" transform="translate(170.858426 0) scale(0.996264)"/>
       <use xlink:href="#URWPalladioL-Roma-47" transform="translate(256.537192 0) scale(0.996264)"/>
       <use xlink:href="#URWPalladioL-Roma-48" transform="translate(332.550938 0) scale(0.996264)"/>
       <use xlink:href="#URWPalladioL-Roma-4b" transform="translate(415.439599 0) scale(0.996264)"/>
       <path d="M 226.648968 0 
L 256.537192 0 
L 256.537192 0.3985 
L 226.648968 0.3985 
L 226.648968 0 
z
"/>
      </g>
     </g>
    </g>
    <g id="xtick_9">
     <g id="line2d_17">
      <path d="M 171.316267 137.679435 
L 171.316267 11.88 
" clip-path="url(#p62ce0c8406)" style="fill: none; stroke: #b0b0b0; stroke-width: 0.8; stroke-linecap: square"/>
     </g>
     <g id="line2d_18">
      <g>
       <use xlink:href="#m7c0b08fd34" x="171.316267" y="137.679435" style="stroke: #000000; stroke-width: 0.8"/>
      </g>
     </g>
     <g id="text_9">
      <!-- BP10_GHK -->
      <g transform="translate(173.691621 198.333791) rotate(-90) scale(0.11 -0.11)">
       <use xlink:href="#URWPalladioL-Roma-42" transform="scale(0.996264)"/>
       <use xlink:href="#URWPalladioL-Roma-50" transform="translate(60.871631 0) scale(0.996264)"/>
       <use xlink:href="#URWPalladioL-Roma-31" transform="translate(121.045226 0) scale(0.996264)"/>
       <use xlink:href="#URWPalladioL-Roma-30" transform="translate(170.858426 0) scale(0.996264)"/>
       <use xlink:href="#URWPalladioL-Roma-47" transform="translate(256.537192 0) scale(0.996264)"/>
       <use xlink:href="#URWPalladioL-Roma-48" transform="translate(332.550938 0) scale(0.996264)"/>
       <use xlink:href="#URWPalladioL-Roma-4b" transform="translate(415.439599 0) scale(0.996264)"/>
       <path d="M 226.648968 0 
L 256.537192 0 
L 256.537192 0.3985 
L 226.648968 0.3985 
L 226.648968 0 
z
"/>
      </g>
     </g>
    </g>
    <g id="xtick_10">
     <g id="line2d_19">
      <path d="M 184.839329 137.679435 
L 184.839329 11.88 
" clip-path="url(#p62ce0c8406)" style="fill: none; stroke: #b0b0b0; stroke-width: 0.8; stroke-linecap: square"/>
     </g>
     <g id="line2d_20">
      <g>
       <use xlink:href="#m7c0b08fd34" x="184.839329" y="137.679435" style="stroke: #000000; stroke-width: 0.8"/>
      </g>
     </g>
     <g id="text_10">
      <!-- BP13_GHK -->
      <g transform="translate(187.214684 198.333791) rotate(-90) scale(0.11 -0.11)">
       <defs>
        <path id="URWPalladioL-Roma-33" d="M 275 3197 
L 474 3197 
L 589 3554 
C 659 3770 1062 3987 1395 3987 
C 1811 3987 2150 3649 2150 3248 
C 2150 2770 1773 2368 1318 2368 
C 1267 2368 1197 2368 1114 2381 
L 1018 2381 
L 941 2047 
L 986 2008 
C 1229 2118 1350 2150 1523 2150 
C 2054 2150 2362 1809 2362 1222 
C 2362 566 1971 135 1376 135 
C 1082 135 819 231 627 411 
C 474 553 390 701 269 1049 
L 96 985 
C 230 593 282 361 320 39 
C 659 -77 941 -128 1178 -128 
C 1690 -128 2278 161 2630 593 
C 2848 857 2957 1140 2957 1442 
C 2957 1751 2829 2022 2598 2182 
C 2438 2298 2291 2350 1971 2407 
C 2483 2803 2675 3096 2675 3472 
C 2675 4040 2202 4416 1491 4416 
C 1056 4416 768 4295 461 3989 
L 275 3197 
z
" transform="scale(0.015625)"/>
       </defs>
       <use xlink:href="#URWPalladioL-Roma-42" transform="scale(0.996264)"/>
       <use xlink:href="#URWPalladioL-Roma-50" transform="translate(60.871631 0) scale(0.996264)"/>
       <use xlink:href="#URWPalladioL-Roma-31" transform="translate(121.045226 0) scale(0.996264)"/>
       <use xlink:href="#URWPalladioL-Roma-33" transform="translate(170.858426 0) scale(0.996264)"/>
       <use xlink:href="#URWPalladioL-Roma-47" transform="translate(256.537192 0) scale(0.996264)"/>
       <use xlink:href="#URWPalladioL-Roma-48" transform="translate(332.550938 0) scale(0.996264)"/>
       <use xlink:href="#URWPalladioL-Roma-4b" transform="translate(415.439599 0) scale(0.996264)"/>
       <path d="M 226.648968 0 
L 256.537192 0 
L 256.537192 0.3985 
L 226.648968 0.3985 
L 226.648968 0 
z
"/>
      </g>
     </g>
    </g>
    <g id="xtick_11">
     <g id="line2d_21">
      <path d="M 198.362391 137.679435 
L 198.362391 11.88 
" clip-path="url(#p62ce0c8406)" style="fill: none; stroke: #b0b0b0; stroke-width: 0.8; stroke-linecap: square"/>
     </g>
     <g id="line2d_22">
      <g>
       <use xlink:href="#m7c0b08fd34" x="198.362391" y="137.679435" style="stroke: #000000; stroke-width: 0.8"/>
      </g>
     </g>
     <g id="text_11">
      <!-- BP24_GHK -->
      <g transform="translate(200.737746 198.333791) rotate(-90) scale(0.11 -0.11)">
       <use xlink:href="#URWPalladioL-Roma-42" transform="scale(0.996264)"/>
       <use xlink:href="#URWPalladioL-Roma-50" transform="translate(60.871631 0) scale(0.996264)"/>
       <use xlink:href="#URWPalladioL-Roma-32" transform="translate(121.045226 0) scale(0.996264)"/>
       <use xlink:href="#URWPalladioL-Roma-34" transform="translate(170.858426 0) scale(0.996264)"/>
       <use xlink:href="#URWPalladioL-Roma-47" transform="translate(256.537192 0) scale(0.996264)"/>
       <use xlink:href="#URWPalladioL-Roma-48" transform="translate(332.550938 0) scale(0.996264)"/>
       <use xlink:href="#URWPalladioL-Roma-4b" transform="translate(415.439599 0) scale(0.996264)"/>
       <path d="M 226.648968 0 
L 256.537192 0 
L 256.537192 0.3985 
L 226.648968 0.3985 
L 226.648968 0 
z
"/>
      </g>
     </g>
    </g>
    <g id="xtick_12">
     <g id="line2d_23">
      <path d="M 211.885454 137.679435 
L 211.885454 11.88 
" clip-path="url(#p62ce0c8406)" style="fill: none; stroke: #b0b0b0; stroke-width: 0.8; stroke-linecap: square"/>
     </g>
     <g id="line2d_24">
      <g>
       <use xlink:href="#m7c0b08fd34" x="211.885454" y="137.679435" style="stroke: #000000; stroke-width: 0.8"/>
      </g>
     </g>
     <g id="text_12">
      <!-- BP1T_GHK -->
      <g transform="translate(214.260808 199.572007) rotate(-90) scale(0.11 -0.11)">
       <use xlink:href="#URWPalladioL-Roma-42" transform="scale(0.996264)"/>
       <use xlink:href="#URWPalladioL-Roma-50" transform="translate(60.871631 0) scale(0.996264)"/>
       <use xlink:href="#URWPalladioL-Roma-31" transform="translate(121.045226 0) scale(0.996264)"/>
       <use xlink:href="#URWPalladioL-Roma-54" transform="translate(170.858426 0) scale(0.996264)"/>
       <use xlink:href="#URWPalladioL-Roma-47" transform="translate(267.793823 0) scale(0.996264)"/>
       <use xlink:href="#URWPalladioL-Roma-48" transform="translate(343.807569 0) scale(0.996264)"/>
       <use xlink:href="#URWPalladioL-Roma-4b" transform="translate(426.69623 0) scale(0.996264)"/>
       <path d="M 237.905599 0 
L 267.793823 0 
L 267.793823 0.3985 
L 237.905599 0.3985 
L 237.905599 0 
z
"/>
      </g>
     </g>
    </g>
    <g id="xtick_13">
     <g id="line2d_25">
      <path d="M 225.408516 137.679435 
L 225.408516 11.88 
" clip-path="url(#p62ce0c8406)" style="fill: none; stroke: #b0b0b0; stroke-width: 0.8; stroke-linecap: square"/>
     </g>
     <g id="line2d_26">
      <g>
       <use xlink:href="#m7c0b08fd34" x="225.408516" y="137.679435" style="stroke: #000000; stroke-width: 0.8"/>
      </g>
     </g>
     <g id="text_13">
      <!-- BP4T_GHK -->
      <g transform="translate(227.783871 199.572007) rotate(-90) scale(0.11 -0.11)">
       <use xlink:href="#URWPalladioL-Roma-42" transform="scale(0.996264)"/>
       <use xlink:href="#URWPalladioL-Roma-50" transform="translate(60.871631 0) scale(0.996264)"/>
       <use xlink:href="#URWPalladioL-Roma-34" transform="translate(121.045226 0) scale(0.996264)"/>
       <use xlink:href="#URWPalladioL-Roma-54" transform="translate(170.858426 0) scale(0.996264)"/>
       <use xlink:href="#URWPalladioL-Roma-47" transform="translate(267.793823 0) scale(0.996264)"/>
       <use xlink:href="#URWPalladioL-Roma-48" transform="translate(343.807569 0) scale(0.996264)"/>
       <use xlink:href="#URWPalladioL-Roma-4b" transform="translate(426.69623 0) scale(0.996264)"/>
       <path d="M 237.905599 0 
L 267.793823 0 
L 267.793823 0.3985 
L 237.905599 0.3985 
L 237.905599 0 
z
"/>
      </g>
     </g>
    </g>
    <g id="xtick_14">
     <g id="line2d_27">
      <path d="M 238.931579 137.679435 
L 238.931579 11.88 
" clip-path="url(#p62ce0c8406)" style="fill: none; stroke: #b0b0b0; stroke-width: 0.8; stroke-linecap: square"/>
     </g>
     <g id="line2d_28">
      <g>
       <use xlink:href="#m7c0b08fd34" x="238.931579" y="137.679435" style="stroke: #000000; stroke-width: 0.8"/>
      </g>
     </g>
     <g id="text_14">
      <!-- BP_KA_TOP -->
      <g transform="translate(241.306933 204.12) rotate(-90) scale(0.11 -0.11)">
       <defs>
        <path id="URWPalladioL-Roma-4f" d="M 2573 4544 
C 1114 4544 141 3596 141 2186 
C 141 839 1075 -128 2368 -128 
C 3802 -128 4890 942 4890 2351 
C 4890 3698 3994 4544 2573 4544 
z
M 2464 4274 
C 3558 4274 4205 3493 4205 2160 
C 4205 890 3616 141 2624 141 
C 1549 141 826 1051 826 2422 
C 826 3607 1414 4274 2464 4274 
z
" transform="scale(0.015625)"/>
       </defs>
       <use xlink:href="#URWPalladioL-Roma-42" transform="scale(0.996264)"/>
       <use xlink:href="#URWPalladioL-Roma-50" transform="translate(60.871631 0) scale(0.996264)"/>
       <use xlink:href="#URWPalladioL-Roma-4b" transform="translate(156.910791 0) scale(0.996264)"/>
       <use xlink:href="#URWPalladioL-Roma-41" transform="translate(229.238485 0) scale(0.996264)"/>
       <use xlink:href="#URWPalladioL-Roma-54" transform="translate(342.61242 0) scale(0.996264)"/>
       <use xlink:href="#URWPalladioL-Roma-4f" transform="translate(401.889673 0) scale(0.996264)"/>
       <use xlink:href="#URWPalladioL-Roma-50" transform="translate(480.195954 0) scale(0.996264)"/>
       <path d="M 127.022567 0 
L 156.910791 0 
L 156.910791 0.3985 
L 127.022567 0.3985 
L 127.022567 0 
z
"/>
       <path d="M 312.724196 0 
L 342.61242 0 
L 342.61242 0.3985 
L 312.724196 0.3985 
L 312.724196 0 
z
"/>
      </g>
     </g>
    </g>
    <g id="xtick_15">
     <g id="line2d_29">
      <path d="M 252.454641 137.679435 
L 252.454641 11.88 
" clip-path="url(#p62ce0c8406)" style="fill: none; stroke: #b0b0b0; stroke-width: 0.8; stroke-linecap: square"/>
     </g>
     <g id="line2d_30">
      <g>
       <use xlink:href="#m7c0b08fd34" x="252.454641" y="137.679435" style="stroke: #000000; stroke-width: 0.8"/>
      </g>
     </g>
     <g id="text_15">
      <!-- BP_BC_TOP -->
      <g transform="translate(254.829995 202.103727) rotate(-90) scale(0.11 -0.11)">
       <defs>
        <path id="URWPalladioL-Roma-43" d="M 4288 539 
L 4230 603 
C 3834 346 3392 218 2906 218 
C 1658 218 826 1051 826 2313 
C 826 3493 1555 4274 2656 4274 
C 3283 4274 3930 4018 3930 3769 
L 3930 3307 
L 4128 3307 
C 4134 3627 4160 3857 4250 4280 
C 3706 4460 3238 4544 2771 4544 
C 2214 4544 1683 4409 1254 4159 
C 525 3730 141 3057 141 2192 
C 141 807 1152 -128 2656 -128 
C 3187 -128 3667 -13 4109 218 
L 4288 539 
z
" transform="scale(0.015625)"/>
       </defs>
       <use xlink:href="#URWPalladioL-Roma-42" transform="scale(0.996264)"/>
       <use xlink:href="#URWPalladioL-Roma-50" transform="translate(60.871631 0) scale(0.996264)"/>
       <use xlink:href="#URWPalladioL-Roma-42" transform="translate(156.910791 0) scale(0.996264)"/>
       <use xlink:href="#URWPalladioL-Roma-43" transform="translate(217.782422 0) scale(0.996264)"/>
       <use xlink:href="#URWPalladioL-Roma-54" transform="translate(324.28278 0) scale(0.996264)"/>
       <use xlink:href="#URWPalladioL-Roma-4f" transform="translate(383.560032 0) scale(0.996264)"/>
       <use xlink:href="#URWPalladioL-Roma-50" transform="translate(461.866314 0) scale(0.996264)"/>
       <path d="M 127.022567 0 
L 156.910791 0 
L 156.910791 0.3985 
L 127.022567 0.3985 
L 127.022567 0 
z
"/>
       <path d="M 294.394556 0 
L 324.28278 0 
L 324.28278 0.3985 
L 294.394556 0.3985 
L 294.394556 0 
z
"/>
      </g>
     </g>
    </g>
    <g id="xtick_16">
     <g id="line2d_31">
      <path d="M 265.977703 137.679435 
L 265.977703 11.88 
" clip-path="url(#p62ce0c8406)" style="fill: none; stroke: #b0b0b0; stroke-width: 0.8; stroke-linecap: square"/>
     </g>
     <g id="line2d_32">
      <g>
       <use xlink:href="#m7c0b08fd34" x="265.977703" y="137.679435" style="stroke: #000000; stroke-width: 0.8"/>
      </g>
     </g>
     <g id="text_16">
      <!-- BP_EF_BOT -->
      <g transform="translate(268.353058 200.700967) rotate(-90) scale(0.11 -0.11)">
       <defs>
        <path id="URWPalladioL-Roma-45" d="M 141 4224 
L 448 4224 
C 742 4224 774 4172 774 3665 
L 774 784 
C 774 276 749 231 448 205 
L 218 186 
L 218 0 
C 640 0 826 0 1005 0 
C 1037 0 1216 0 1459 0 
C 2349 0 2349 0 2490 0 
C 2688 0 2688 0 3558 0 
C 3558 382 3597 736 3661 1079 
L 3437 1079 
C 3424 972 3411 878 3405 852 
C 3366 564 3283 356 3194 323 
C 3059 276 2592 276 2016 276 
C 1683 276 1568 286 1382 315 
L 1382 2100 
C 1562 2112 1754 2112 2042 2112 
C 2515 2112 2688 2094 2803 2040 
L 2854 1890 
L 2886 1536 
L 3078 1536 
C 3059 2132 3059 2132 3059 2247 
C 3059 2350 3059 2350 3078 2991 
L 2886 2991 
L 2854 2642 
C 2848 2581 2829 2521 2803 2467 
C 2688 2414 2509 2394 2086 2394 
C 1818 2394 1600 2394 1382 2394 
L 1382 4117 
C 1581 4160 1690 4160 2131 4160 
C 2496 4160 2854 4130 3059 4076 
C 3213 4039 3232 4008 3232 3868 
L 3232 3465 
L 3456 3465 
C 3456 3843 3488 4146 3558 4423 
C 3245 4423 3046 4423 2765 4423 
C 2605 4423 2394 4423 2131 4423 
C 1728 4423 1453 4423 1280 4423 
C 1062 4423 774 4423 141 4423 
L 141 4224 
z
" transform="scale(0.015625)"/>
        <path id="URWPalladioL-Roma-46" d="M 1382 2100 
C 1562 2112 1754 2112 2042 2112 
C 2515 2112 2688 2094 2803 2040 
L 2854 1890 
L 2886 1536 
L 3078 1536 
C 3059 2132 3059 2132 3059 2247 
C 3059 2350 3059 2350 3078 2991 
L 2886 2991 
L 2854 2642 
C 2848 2581 2829 2521 2803 2467 
C 2688 2414 2509 2394 2086 2394 
C 1818 2394 1600 2394 1382 2394 
L 1382 4117 
C 1574 4160 1690 4160 2067 4160 
C 2374 4160 2733 4124 2931 4076 
C 3085 4039 3104 4008 3104 3868 
L 3104 3465 
L 3328 3465 
C 3328 3843 3360 4146 3430 4423 
C 3117 4423 2925 4423 2650 4423 
L 1965 4423 
C 1651 4423 1427 4423 1267 4423 
C 1082 4423 1082 4423 141 4423 
L 141 4224 
L 448 4224 
C 742 4224 774 4172 774 3663 
L 774 766 
C 774 256 742 205 448 205 
L 141 205 
L 141 0 
C 518 0 742 0 1075 0 
C 1408 0 1638 0 2016 0 
L 2016 205 
L 1709 205 
C 1414 205 1382 256 1382 766 
L 1382 2100 
z
" transform="scale(0.015625)"/>
       </defs>
       <use xlink:href="#URWPalladioL-Roma-42" transform="scale(0.996264)"/>
       <use xlink:href="#URWPalladioL-Roma-50" transform="translate(60.871631 0) scale(0.996264)"/>
       <use xlink:href="#URWPalladioL-Roma-45" transform="translate(156.910791 0) scale(0.996264)"/>
       <use xlink:href="#URWPalladioL-Roma-46" transform="translate(217.782422 0) scale(0.996264)"/>
       <use xlink:href="#URWPalladioL-Roma-42" transform="translate(309.039664 0) scale(0.996264)"/>
       <use xlink:href="#URWPalladioL-Roma-4f" transform="translate(369.911295 0) scale(0.996264)"/>
       <use xlink:href="#URWPalladioL-Roma-54" transform="translate(448.217576 0) scale(0.996264)"/>
       <path d="M 127.022567 0 
L 156.910791 0 
L 156.910791 0.3985 
L 127.022567 0.3985 
L 127.022567 0 
z
"/>
       <path d="M 279.15144 0 
L 309.039664 0 
L 309.039664 0.3985 
L 279.15144 0.3985 
L 279.15144 0 
z
"/>
      </g>
     </g>
    </g>
   </g>
   <g id="matplotlib.axis_2">
    <g id="ytick_1">
     <g id="line2d_33">
      <path d="M 52.989471 122.131895 
L 276.12 122.131895 
" clip-path="url(#p62ce0c8406)" style="fill: none; stroke: #b0b0b0; stroke-width: 0.8; stroke-linecap: square"/>
     </g>
     <g id="line2d_34">
      <defs>
       <path id="m71b9a3a4e2" d="M 0 0 
L -3.5 0 
" style="stroke: #000000; stroke-width: 0.8"/>
      </defs>
      <g>
       <use xlink:href="#m71b9a3a4e2" x="52.989471" y="122.131895" style="stroke: #000000; stroke-width: 0.8"/>
      </g>
     </g>
     <g id="text_17">
      <!-- $\mathdefault{0.25}$ -->
      <g transform="translate(26.811389 126.052419) scale(0.11 -0.11)">
       <defs>
        <path id="URWPalladioL-Roma-2e" d="M 794 744 
C 602 744 429 564 429 372 
C 429 179 602 0 787 0 
C 992 0 1171 173 1171 372 
C 1171 564 992 744 794 744 
z
" transform="scale(0.015625)"/>
        <path id="URWPalladioL-Roma-35" d="M 813 3877 
C 1638 3877 1997 3877 2765 3877 
L 2797 3907 
C 2784 4016 2784 4064 2784 4144 
C 2784 4229 2784 4277 2797 4386 
L 2765 4416 
C 2285 4416 1997 4416 1651 4416 
C 1299 4416 1018 4416 538 4416 
L 506 4403 
C 512 4011 518 3729 518 3523 
C 518 2977 499 2360 480 2077 
L 608 2038 
C 909 2341 1082 2432 1395 2432 
C 2010 2432 2394 1993 2394 1296 
C 2394 580 1984 160 1286 160 
C 941 160 621 277 531 444 
L 237 973 
L 83 883 
C 230 516 307 310 397 27 
C 576 -71 832 -128 1107 -128 
C 1536 -128 1990 59 2342 368 
C 2733 716 2938 1154 2938 1630 
C 2938 2359 2419 2874 1690 2874 
C 1382 2874 1152 2791 755 2554 
L 813 3877 
z
" transform="scale(0.015625)"/>
       </defs>
       <use xlink:href="#URWPalladioL-Roma-30" transform="scale(0.996264)"/>
       <use xlink:href="#URWPalladioL-Roma-2e" transform="translate(49.8132 0) scale(0.996264)"/>
       <use xlink:href="#URWPalladioL-Roma-32" transform="translate(74.719801 0) scale(0.996264)"/>
       <use xlink:href="#URWPalladioL-Roma-35" transform="translate(124.533001 0) scale(0.996264)"/>
      </g>
     </g>
    </g>
    <g id="ytick_2">
     <g id="line2d_35">
      <path d="M 52.989471 90.288715 
L 276.12 90.288715 
" clip-path="url(#p62ce0c8406)" style="fill: none; stroke: #b0b0b0; stroke-width: 0.8; stroke-linecap: square"/>
     </g>
     <g id="line2d_36">
      <g>
       <use xlink:href="#m71b9a3a4e2" x="52.989471" y="90.288715" style="stroke: #000000; stroke-width: 0.8"/>
      </g>
     </g>
     <g id="text_18">
      <!-- $\mathdefault{0.30}$ -->
      <g transform="translate(26.811389 94.20924) scale(0.11 -0.11)">
       <use xlink:href="#URWPalladioL-Roma-30" transform="scale(0.996264)"/>
       <use xlink:href="#URWPalladioL-Roma-2e" transform="translate(49.8132 0) scale(0.996264)"/>
       <use xlink:href="#URWPalladioL-Roma-33" transform="translate(74.719801 0) scale(0.996264)"/>
       <use xlink:href="#URWPalladioL-Roma-30" transform="translate(124.533001 0) scale(0.996264)"/>
      </g>
     </g>
    </g>
    <g id="ytick_3">
     <g id="line2d_37">
      <path d="M 52.989471 58.445536 
L 276.12 58.445536 
" clip-path="url(#p62ce0c8406)" style="fill: none; stroke: #b0b0b0; stroke-width: 0.8; stroke-linecap: square"/>
     </g>
     <g id="line2d_38">
      <g>
       <use xlink:href="#m71b9a3a4e2" x="52.989471" y="58.445536" style="stroke: #000000; stroke-width: 0.8"/>
      </g>
     </g>
     <g id="text_19">
      <!-- $\mathdefault{0.35}$ -->
      <g transform="translate(26.811389 62.36606) scale(0.11 -0.11)">
       <use xlink:href="#URWPalladioL-Roma-30" transform="scale(0.996264)"/>
       <use xlink:href="#URWPalladioL-Roma-2e" transform="translate(49.8132 0) scale(0.996264)"/>
       <use xlink:href="#URWPalladioL-Roma-33" transform="translate(74.719801 0) scale(0.996264)"/>
       <use xlink:href="#URWPalladioL-Roma-35" transform="translate(124.533001 0) scale(0.996264)"/>
      </g>
     </g>
    </g>
    <g id="ytick_4">
     <g id="line2d_39">
      <path d="M 52.989471 26.602356 
L 276.12 26.602356 
" clip-path="url(#p62ce0c8406)" style="fill: none; stroke: #b0b0b0; stroke-width: 0.8; stroke-linecap: square"/>
     </g>
     <g id="line2d_40">
      <g>
       <use xlink:href="#m71b9a3a4e2" x="52.989471" y="26.602356" style="stroke: #000000; stroke-width: 0.8"/>
      </g>
     </g>
     <g id="text_20">
      <!-- $\mathdefault{0.40}$ -->
      <g transform="translate(26.811389 30.522881) scale(0.11 -0.11)">
       <use xlink:href="#URWPalladioL-Roma-30" transform="scale(0.996264)"/>
       <use xlink:href="#URWPalladioL-Roma-2e" transform="translate(49.8132 0) scale(0.996264)"/>
       <use xlink:href="#URWPalladioL-Roma-34" transform="translate(74.719801 0) scale(0.996264)"/>
       <use xlink:href="#URWPalladioL-Roma-30" transform="translate(124.533001 0) scale(0.996264)"/>
      </g>
     </g>
    </g>
    <g id="text_21">
     <!-- Signal Magnitude [T/s] -->
     <g transform="translate(19.721049 132.02836) rotate(-90) scale(0.11 -0.11)">
      <defs>
       <path id="URWPalladioL-Roma-53" d="M 2861 3371 
C 2861 3711 2886 3928 2950 4274 
C 2438 4480 2150 4544 1798 4544 
C 845 4544 154 3941 154 3102 
C 154 2788 237 2557 422 2384 
C 640 2186 934 2083 1555 2000 
C 2048 1929 2272 1859 2438 1711 
C 2605 1577 2682 1391 2682 1147 
C 2682 571 2202 154 1536 154 
C 1024 154 525 404 493 666 
L 442 1096 
L 237 1096 
C 243 980 243 878 243 840 
C 243 545 230 404 192 116 
C 557 -45 928 -128 1299 -128 
C 2413 -128 3219 545 3219 1474 
C 3219 1775 3136 1987 2957 2153 
C 2733 2364 2464 2448 1747 2544 
C 966 2646 691 2858 691 3352 
C 691 3890 1094 4274 1658 4274 
C 1907 4274 2144 4223 2317 4127 
C 2528 4018 2598 3922 2618 3737 
L 2656 3371 
L 2861 3371 
z
" transform="scale(0.015625)"/>
       <path id="URWPalladioL-Roma-69" d="M 1203 2993 
L 1146 3019 
C 819 2884 486 2793 147 2755 
L 147 2576 
L 384 2576 
C 640 2576 666 2531 666 2105 
L 666 651 
C 666 244 646 199 429 199 
L 134 199 
L 134 0 
C 774 0 774 0 934 0 
C 1094 0 1094 0 1734 0 
L 1734 199 
L 1440 199 
C 1222 199 1203 244 1203 651 
L 1203 2993 
z
M 909 4416 
C 717 4416 550 4249 550 4056 
C 550 3870 717 3704 902 3704 
C 1088 3704 1261 3870 1261 4056 
C 1261 4236 1088 4416 909 4416 
z
" transform="scale(0.015625)"/>
       <path id="URWPalladioL-Roma-67" d="M 3322 2432 
L 3482 2695 
L 3456 2759 
L 2547 2759 
C 2310 2937 2080 3008 1766 3008 
C 1485 3008 1158 2920 896 2768 
C 538 2567 352 2258 352 1874 
C 352 1408 646 1087 1120 1036 
L 614 640 
C 550 543 518 459 518 361 
C 518 180 634 76 941 -14 
L 384 -316 
C 294 -367 205 -604 205 -803 
C 205 -1388 774 -1792 1587 -1792 
C 2554 -1792 3315 -1182 3315 -399 
C 3315 63 3008 384 2560 384 
L 1536 384 
C 1203 384 1050 462 1050 639 
C 1050 724 1101 795 1267 939 
C 1306 972 1318 985 1344 1011 
C 1408 1004 1446 998 1498 998 
C 1773 998 2112 1118 2374 1300 
C 2662 1507 2803 1759 2803 2093 
C 2803 2218 2784 2300 2733 2432 
L 3322 2432 
z
M 1536 2790 
C 1971 2790 2266 2438 2266 1905 
C 2266 1499 1997 1216 1606 1216 
C 1178 1216 890 1542 890 2025 
C 890 2507 1126 2790 1536 2790 
z
M 1837 -65 
C 2560 -65 2810 -212 2810 -630 
C 2810 -1182 2304 -1593 1632 -1593 
C 1075 -1593 691 -1266 691 -790 
C 691 -502 858 -238 1114 -129 
C 1216 -78 1395 -65 1837 -65 
z
" transform="scale(0.015625)"/>
       <path id="URWPalladioL-Roma-6e" d="M 2624 -7 
C 3014 -7 3021 -7 3130 -7 
C 3219 -7 3219 -7 3661 -7 
L 3661 179 
L 3398 205 
C 3181 205 3162 244 3162 654 
L 3162 1892 
C 3162 2642 2810 3008 2093 3008 
C 1856 3008 1722 2963 1587 2847 
L 1101 2424 
L 1101 2982 
L 1043 3008 
C 717 2873 384 2783 45 2745 
L 45 2565 
L 282 2565 
C 538 2565 563 2520 563 2094 
L 563 643 
C 563 237 544 192 326 192 
L 38 192 
L 38 -7 
C 474 -7 646 -7 832 -7 
C 1018 -7 1190 -7 1626 -7 
L 1626 192 
L 1338 192 
C 1120 192 1101 237 1101 643 
L 1101 2011 
C 1101 2300 1523 2616 1914 2616 
C 2342 2616 2624 2297 2624 1806 
L 2624 -7 
z
" transform="scale(0.015625)"/>
       <path id="URWPalladioL-Roma-61" d="M 2074 538 
L 2042 -1 
C 2458 -1 2458 -1 2541 -1 
C 2573 -1 2733 -1 3014 -1 
L 3014 192 
L 2765 192 
C 2611 192 2586 244 2586 558 
L 2586 1731 
C 2586 2668 2317 3008 1574 3008 
C 1299 3008 1043 2937 800 2791 
L 461 2585 
L 461 2171 
L 627 2126 
L 710 2323 
C 845 2623 909 2668 1203 2668 
C 1805 2668 2054 2431 2074 1852 
L 1440 1736 
C 570 1577 205 1277 205 722 
C 205 224 506 -64 1011 -64 
C 1126 -64 1235 -45 1280 -13 
L 2074 538 
z
M 2074 806 
C 1888 544 1485 302 1235 302 
C 979 302 755 538 755 812 
C 755 1048 883 1271 1075 1392 
C 1235 1488 1587 1577 2074 1648 
L 2074 806 
z
" transform="scale(0.015625)"/>
       <path id="URWPalladioL-Roma-6c" d="M 147 4256 
L 506 4256 
C 621 4256 666 4185 666 3992 
L 666 651 
C 666 244 646 199 429 199 
L 134 199 
L 134 0 
C 774 0 774 0 934 0 
C 1094 0 1094 0 1734 0 
L 1734 199 
L 1440 199 
C 1222 199 1203 244 1203 650 
L 1203 4621 
L 1146 4673 
C 864 4564 653 4512 147 4435 
L 147 4256 
z
" transform="scale(0.015625)"/>
       <path id="URWPalladioL-Roma-4d" d="M 4685 783 
C 4685 276 4659 231 4358 205 
L 4141 186 
L 4141 0 
C 4435 0 4627 0 4960 0 
C 5318 0 5549 0 5926 0 
L 5926 205 
L 5619 205 
C 5325 205 5293 256 5293 766 
L 5293 3663 
C 5293 4166 5325 4224 5619 4224 
L 5888 4256 
L 5888 4436 
C 5402 4436 5402 4436 5293 4436 
C 5197 4436 5197 4436 4685 4436 
L 3008 884 
L 1318 4436 
C 806 4436 806 4436 710 4436 
C 614 4436 614 4436 102 4436 
L 102 4237 
L 384 4237 
C 678 4237 710 4178 710 3674 
L 710 768 
C 710 263 678 205 384 205 
L 102 205 
L 102 0 
C 736 0 736 0 845 0 
C 941 0 941 0 1613 0 
L 1613 205 
L 1331 205 
C 1037 205 1005 262 1005 766 
L 1005 3718 
L 2790 -64 
L 2918 -64 
C 2963 32 3002 134 3040 230 
C 3142 480 3219 658 3264 748 
L 4403 3167 
C 4493 3353 4570 3500 4685 3718 
L 4685 783 
z
" transform="scale(0.015625)"/>
       <path id="URWPalladioL-Roma-74" d="M 627 2476 
L 627 619 
C 627 142 838 -64 1331 -64 
C 1478 -64 1632 -32 1670 13 
L 1978 353 
L 1894 463 
C 1734 372 1638 340 1517 340 
C 1267 340 1165 470 1165 788 
L 1165 2489 
L 1984 2489 
L 2042 2816 
L 1165 2816 
L 1165 3056 
C 1165 3321 1184 3547 1235 3951 
L 1158 4021 
C 1005 3925 813 3842 614 3778 
C 634 3585 640 3463 640 3271 
L 640 2822 
L 141 2598 
L 141 2476 
L 627 2476 
z
" transform="scale(0.015625)"/>
       <path id="URWPalladioL-Roma-75" d="M 3219 3009 
L 3162 3035 
C 2835 2900 2502 2810 2163 2772 
L 2163 2592 
L 2400 2592 
C 2656 2592 2682 2547 2682 2121 
L 2682 1070 
C 2682 928 2592 747 2445 599 
C 2266 418 2061 327 1811 327 
C 1587 327 1408 398 1306 521 
C 1216 624 1171 824 1171 1107 
L 1171 3009 
L 1114 3035 
C 787 2900 454 2810 115 2772 
L 115 2592 
L 352 2592 
C 608 2592 634 2547 634 2122 
L 634 1039 
C 634 587 672 387 787 227 
C 928 33 1171 -64 1536 -64 
C 1824 -64 2080 26 2253 186 
L 2682 585 
C 2682 401 2675 298 2656 0 
C 3085 0 3091 0 3187 0 
C 3277 0 3277 0 3718 0 
L 3718 186 
L 3456 212 
C 3238 212 3219 251 3219 664 
L 3219 3009 
z
" transform="scale(0.015625)"/>
       <path id="URWPalladioL-Roma-64" d="M 2637 2802 
C 2278 2956 2099 3008 1875 3008 
C 1702 3008 1549 2969 1389 2887 
L 826 2593 
C 461 2401 224 1935 224 1392 
C 224 881 397 460 710 204 
C 928 19 1229 -64 1645 -64 
C 1773 -64 1920 -38 1952 -13 
L 2662 583 
L 2630 -7 
C 2944 -7 3046 -7 3123 -7 
C 3174 -7 3264 -7 3398 -7 
C 3443 -7 3571 -7 3706 -7 
L 3706 192 
L 3411 192 
C 3194 192 3174 237 3174 643 
L 3174 4607 
L 3117 4659 
C 2835 4550 2624 4498 2118 4421 
L 2118 4242 
L 2477 4242 
C 2592 4242 2637 4171 2637 3978 
L 2637 2802 
z
M 2637 1424 
C 2637 1009 2624 946 2541 799 
C 2362 499 2048 302 1747 302 
C 1184 302 781 844 781 1603 
C 781 2298 1126 2706 1702 2706 
C 1946 2706 2202 2623 2426 2470 
C 2560 2381 2637 2298 2637 2246 
L 2637 1424 
z
" transform="scale(0.015625)"/>
       <path id="URWPalladioL-Roma-65" d="M 2797 447 
L 2714 511 
C 2304 269 2157 212 1882 212 
C 1466 212 1120 398 941 711 
C 819 921 774 1101 762 1472 
L 1696 1472 
C 2138 1472 2413 1472 2854 1544 
C 2861 1634 2867 1693 2867 1771 
C 2867 2520 2394 3008 1677 3008 
C 1440 3008 1165 2924 902 2770 
C 378 2469 166 2071 166 1404 
C 166 1000 262 654 435 410 
C 691 71 1120 -128 1600 -128 
C 1837 -128 2074 -77 2336 37 
C 2509 108 2643 191 2669 230 
L 2797 447 
z
M 2298 1690 
C 1965 1690 1811 1690 1581 1690 
C 1286 1690 1120 1690 774 1722 
C 774 2027 800 2169 883 2337 
C 1018 2622 1293 2796 1600 2796 
C 1811 2796 1978 2711 2093 2534 
C 2234 2319 2278 2129 2298 1690 
z
" transform="scale(0.015625)"/>
       <path id="URWPalladioL-Roma-5b" d="M 563 -1152 
C 1018 -1152 1030 -1152 1184 -1152 
C 1338 -1152 1370 -1152 1805 -1152 
L 1843 -1120 
L 1843 -953 
L 1818 -921 
L 1574 -921 
C 1402 -921 1261 -882 1184 -818 
C 1126 -760 1107 -671 1107 -459 
C 1107 -453 1107 -318 1101 -125 
L 1101 112 
L 1101 3409 
L 1101 3646 
C 1107 3826 1107 3967 1107 3973 
C 1107 4185 1126 4281 1184 4339 
C 1261 4403 1402 4441 1574 4441 
L 1818 4441 
L 1843 4473 
L 1843 4640 
L 1805 4672 
C 1357 4672 1338 4672 1184 4672 
C 1037 4672 1005 4672 563 4672 
L 506 4595 
C 544 4435 557 4223 557 3730 
C 557 3633 557 3556 563 3492 
L 563 3409 
L 563 112 
L 563 28 
C 557 -74 557 -81 557 -190 
L 557 -260 
C 557 -696 544 -876 506 -1075 
L 563 -1152 
z
" transform="scale(0.015625)"/>
       <path id="URWPalladioL-Roma-2f" d="M 3322 4640 
L 2938 4640 
L 557 -768 
L 941 -768 
L 3322 4640 
z
" transform="scale(0.015625)"/>
       <path id="URWPalladioL-Roma-73" d="M 262 917 
C 262 475 243 282 192 26 
C 525 -83 774 -128 1069 -128 
C 1907 -128 2502 321 2502 949 
C 2502 1148 2445 1295 2323 1424 
C 2157 1584 1946 1661 1382 1770 
C 858 1873 685 2001 685 2296 
C 685 2616 909 2796 1299 2796 
C 1728 2796 2054 2572 2054 2270 
L 2054 2123 
L 2234 2123 
C 2240 2495 2246 2648 2266 2847 
C 1926 2963 1696 3008 1434 3008 
C 691 3008 237 2655 237 2078 
C 237 1770 378 1552 672 1417 
C 845 1340 1184 1238 1619 1141 
C 1907 1077 2029 943 2029 699 
C 2029 353 1709 109 1254 109 
C 787 109 454 333 454 654 
L 454 917 
L 262 917 
z
" transform="scale(0.015625)"/>
       <path id="URWPalladioL-Roma-5d" d="M 1568 4672 
C 1114 4672 1094 4672 947 4672 
C 794 4672 762 4672 326 4672 
L 288 4640 
L 288 4473 
L 314 4441 
L 557 4441 
C 730 4441 864 4403 941 4339 
C 1005 4281 1024 4191 1024 3973 
C 1024 3954 1024 3826 1030 3646 
L 1030 3409 
L 1030 112 
L 1030 -125 
C 1024 -311 1024 -427 1024 -446 
C 1024 -664 1005 -760 941 -818 
C 864 -882 730 -921 557 -921 
L 314 -921 
L 288 -953 
L 288 -1120 
L 326 -1152 
C 774 -1152 787 -1152 947 -1152 
C 1094 -1152 1126 -1152 1568 -1152 
L 1626 -1075 
C 1587 -921 1581 -722 1574 -228 
C 1574 -138 1574 -55 1568 28 
L 1568 112 
L 1568 3409 
L 1568 3492 
C 1574 3563 1574 3646 1574 3736 
C 1574 4230 1587 4441 1626 4595 
L 1568 4672 
z
" transform="scale(0.015625)"/>
      </defs>
      <use xlink:href="#URWPalladioL-Roma-53" transform="scale(0.996264)"/>
      <use xlink:href="#URWPalladioL-Roma-69" transform="translate(52.303815 0) scale(0.996264)"/>
      <use xlink:href="#URWPalladioL-Roma-67" transform="translate(81.294176 0) scale(0.996264)"/>
      <use xlink:href="#URWPalladioL-Roma-6e" transform="translate(136.685853 0) scale(0.996264)"/>
      <use xlink:href="#URWPalladioL-Roma-61" transform="translate(194.667914 0) scale(0.996264)"/>
      <use xlink:href="#URWPalladioL-Roma-6c" transform="translate(244.481115 0) scale(0.996264)"/>
      <use xlink:href="#URWPalladioL-Roma-4d" transform="translate(298.378076 0) scale(0.996264)"/>
      <use xlink:href="#URWPalladioL-Roma-61" transform="translate(392.624278 0) scale(0.996264)"/>
      <use xlink:href="#URWPalladioL-Roma-67" transform="translate(442.437478 0) scale(0.996264)"/>
      <use xlink:href="#URWPalladioL-Roma-6e" transform="translate(497.829155 0) scale(0.996264)"/>
      <use xlink:href="#URWPalladioL-Roma-69" transform="translate(555.811216 0) scale(0.996264)"/>
      <use xlink:href="#URWPalladioL-Roma-74" transform="translate(584.801577 0) scale(0.996264)"/>
      <use xlink:href="#URWPalladioL-Roma-75" transform="translate(617.278665 0) scale(0.996264)"/>
      <use xlink:href="#URWPalladioL-Roma-64" transform="translate(677.3524 0) scale(0.996264)"/>
      <use xlink:href="#URWPalladioL-Roma-65" transform="translate(738.22403 0) scale(0.996264)"/>
      <use xlink:href="#URWPalladioL-Roma-5b" transform="translate(810.850926 0) scale(0.996264)"/>
      <use xlink:href="#URWPalladioL-Roma-54" transform="translate(844.026156 0) scale(0.996264)"/>
      <use xlink:href="#URWPalladioL-Roma-2f" transform="translate(905.095987 0) scale(0.996264)"/>
      <use xlink:href="#URWPalladioL-Roma-73" transform="translate(965.468999 0) scale(0.996264)"/>
      <use xlink:href="#URWPalladioL-Roma-5d" transform="translate(1007.710466 0) scale(0.996264)"/>
     </g>
    </g>
   </g>
   <g id="line2d_41">
    <path d="M 63.131768 131.961279 
L 67.639455 121.804752 
L 72.147143 108.519714 
L 76.65483 97.909187 
L 81.162518 87.222897 
L 85.670205 78.647755 
L 90.177893 69.222527 
L 94.68558 75.14868 
L 99.193267 82.945076 
L 103.700955 103.081287 
L 108.208642 111.842665 
L 112.71633 75.956365 
L 117.224017 36.15711 
L 121.731705 36.125908 
L 126.239392 36.493724 
L 130.74708 21.452206 
L 135.254767 20.998616 
L 139.762455 20.970455 
L 144.270142 126.320705 
L 148.777829 102.460717 
L 153.285517 92.438211 
L 157.793204 85.03589 
L 162.300892 76.327612 
L 166.808579 72.192396 
L 171.316267 76.927885 
L 175.823954 81.238726 
L 180.331642 88.677783 
L 184.839329 98.219593 
L 189.347017 107.615065 
L 193.854704 106.293847 
L 198.362391 85.23546 
L 202.870079 92.926637 
L 207.377766 109.559054 
L 211.885454 34.247438 
L 216.393141 32.99354 
L 220.900829 32.086225 
L 225.408516 20.095436 
L 229.916204 18.708078 
L 234.423891 17.598156 
L 238.931579 39.893774 
L 243.439266 25.988984 
L 247.946953 44.948616 
L 252.454641 44.92193 
L 256.962328 31.38888 
L 261.470016 51.946521 
L 265.977703 38.09777 
" clip-path="url(#p62ce0c8406)" style="fill: none; stroke: #1f77b4; stroke-width: 2; stroke-linecap: square"/>
    <defs>
     <path id="m0e02982ee5" d="M 0 -3 
L -0.673542 -0.927051 
L -2.85317 -0.927051 
L -1.089814 0.354102 
L -1.763356 2.427051 
L -0 1.145898 
L 1.763356 2.427051 
L 1.089814 0.354102 
L 2.85317 -0.927051 
L 0.673542 -0.927051 
z
" style="stroke: #1f77b4; stroke-width: 2; stroke-linejoin: bevel"/>
    </defs>
    <g clip-path="url(#p62ce0c8406)">
     <use xlink:href="#m0e02982ee5" x="63.131768" y="131.961279" style="fill: #1f77b4; stroke: #1f77b4; stroke-width: 2; stroke-linejoin: bevel"/>
     <use xlink:href="#m0e02982ee5" x="67.639455" y="121.804752" style="fill: #1f77b4; stroke: #1f77b4; stroke-width: 2; stroke-linejoin: bevel"/>
     <use xlink:href="#m0e02982ee5" x="72.147143" y="108.519714" style="fill: #1f77b4; stroke: #1f77b4; stroke-width: 2; stroke-linejoin: bevel"/>
     <use xlink:href="#m0e02982ee5" x="76.65483" y="97.909187" style="fill: #1f77b4; stroke: #1f77b4; stroke-width: 2; stroke-linejoin: bevel"/>
     <use xlink:href="#m0e02982ee5" x="81.162518" y="87.222897" style="fill: #1f77b4; stroke: #1f77b4; stroke-width: 2; stroke-linejoin: bevel"/>
     <use xlink:href="#m0e02982ee5" x="85.670205" y="78.647755" style="fill: #1f77b4; stroke: #1f77b4; stroke-width: 2; stroke-linejoin: bevel"/>
     <use xlink:href="#m0e02982ee5" x="90.177893" y="69.222527" style="fill: #1f77b4; stroke: #1f77b4; stroke-width: 2; stroke-linejoin: bevel"/>
     <use xlink:href="#m0e02982ee5" x="94.68558" y="75.14868" style="fill: #1f77b4; stroke: #1f77b4; stroke-width: 2; stroke-linejoin: bevel"/>
     <use xlink:href="#m0e02982ee5" x="99.193267" y="82.945076" style="fill: #1f77b4; stroke: #1f77b4; stroke-width: 2; stroke-linejoin: bevel"/>
     <use xlink:href="#m0e02982ee5" x="103.700955" y="103.081287" style="fill: #1f77b4; stroke: #1f77b4; stroke-width: 2; stroke-linejoin: bevel"/>
     <use xlink:href="#m0e02982ee5" x="108.208642" y="111.842665" style="fill: #1f77b4; stroke: #1f77b4; stroke-width: 2; stroke-linejoin: bevel"/>
     <use xlink:href="#m0e02982ee5" x="112.71633" y="75.956365" style="fill: #1f77b4; stroke: #1f77b4; stroke-width: 2; stroke-linejoin: bevel"/>
     <use xlink:href="#m0e02982ee5" x="117.224017" y="36.15711" style="fill: #1f77b4; stroke: #1f77b4; stroke-width: 2; stroke-linejoin: bevel"/>
     <use xlink:href="#m0e02982ee5" x="121.731705" y="36.125908" style="fill: #1f77b4; stroke: #1f77b4; stroke-width: 2; stroke-linejoin: bevel"/>
     <use xlink:href="#m0e02982ee5" x="126.239392" y="36.493724" style="fill: #1f77b4; stroke: #1f77b4; stroke-width: 2; stroke-linejoin: bevel"/>
     <use xlink:href="#m0e02982ee5" x="130.74708" y="21.452206" style="fill: #1f77b4; stroke: #1f77b4; stroke-width: 2; stroke-linejoin: bevel"/>
     <use xlink:href="#m0e02982ee5" x="135.254767" y="20.998616" style="fill: #1f77b4; stroke: #1f77b4; stroke-width: 2; stroke-linejoin: bevel"/>
     <use xlink:href="#m0e02982ee5" x="139.762455" y="20.970455" style="fill: #1f77b4; stroke: #1f77b4; stroke-width: 2; stroke-linejoin: bevel"/>
     <use xlink:href="#m0e02982ee5" x="144.270142" y="126.320705" style="fill: #1f77b4; stroke: #1f77b4; stroke-width: 2; stroke-linejoin: bevel"/>
     <use xlink:href="#m0e02982ee5" x="148.777829" y="102.460717" style="fill: #1f77b4; stroke: #1f77b4; stroke-width: 2; stroke-linejoin: bevel"/>
     <use xlink:href="#m0e02982ee5" x="153.285517" y="92.438211" style="fill: #1f77b4; stroke: #1f77b4; stroke-width: 2; stroke-linejoin: bevel"/>
     <use xlink:href="#m0e02982ee5" x="157.793204" y="85.03589" style="fill: #1f77b4; stroke: #1f77b4; stroke-width: 2; stroke-linejoin: bevel"/>
     <use xlink:href="#m0e02982ee5" x="162.300892" y="76.327612" style="fill: #1f77b4; stroke: #1f77b4; stroke-width: 2; stroke-linejoin: bevel"/>
     <use xlink:href="#m0e02982ee5" x="166.808579" y="72.192396" style="fill: #1f77b4; stroke: #1f77b4; stroke-width: 2; stroke-linejoin: bevel"/>
     <use xlink:href="#m0e02982ee5" x="171.316267" y="76.927885" style="fill: #1f77b4; stroke: #1f77b4; stroke-width: 2; stroke-linejoin: bevel"/>
     <use xlink:href="#m0e02982ee5" x="175.823954" y="81.238726" style="fill: #1f77b4; stroke: #1f77b4; stroke-width: 2; stroke-linejoin: bevel"/>
     <use xlink:href="#m0e02982ee5" x="180.331642" y="88.677783" style="fill: #1f77b4; stroke: #1f77b4; stroke-width: 2; stroke-linejoin: bevel"/>
     <use xlink:href="#m0e02982ee5" x="184.839329" y="98.219593" style="fill: #1f77b4; stroke: #1f77b4; stroke-width: 2; stroke-linejoin: bevel"/>
     <use xlink:href="#m0e02982ee5" x="189.347017" y="107.615065" style="fill: #1f77b4; stroke: #1f77b4; stroke-width: 2; stroke-linejoin: bevel"/>
     <use xlink:href="#m0e02982ee5" x="193.854704" y="106.293847" style="fill: #1f77b4; stroke: #1f77b4; stroke-width: 2; stroke-linejoin: bevel"/>
     <use xlink:href="#m0e02982ee5" x="198.362391" y="85.23546" style="fill: #1f77b4; stroke: #1f77b4; stroke-width: 2; stroke-linejoin: bevel"/>
     <use xlink:href="#m0e02982ee5" x="202.870079" y="92.926637" style="fill: #1f77b4; stroke: #1f77b4; stroke-width: 2; stroke-linejoin: bevel"/>
     <use xlink:href="#m0e02982ee5" x="207.377766" y="109.559054" style="fill: #1f77b4; stroke: #1f77b4; stroke-width: 2; stroke-linejoin: bevel"/>
     <use xlink:href="#m0e02982ee5" x="211.885454" y="34.247438" style="fill: #1f77b4; stroke: #1f77b4; stroke-width: 2; stroke-linejoin: bevel"/>
     <use xlink:href="#m0e02982ee5" x="216.393141" y="32.99354" style="fill: #1f77b4; stroke: #1f77b4; stroke-width: 2; stroke-linejoin: bevel"/>
     <use xlink:href="#m0e02982ee5" x="220.900829" y="32.086225" style="fill: #1f77b4; stroke: #1f77b4; stroke-width: 2; stroke-linejoin: bevel"/>
     <use xlink:href="#m0e02982ee5" x="225.408516" y="20.095436" style="fill: #1f77b4; stroke: #1f77b4; stroke-width: 2; stroke-linejoin: bevel"/>
     <use xlink:href="#m0e02982ee5" x="229.916204" y="18.708078" style="fill: #1f77b4; stroke: #1f77b4; stroke-width: 2; stroke-linejoin: bevel"/>
     <use xlink:href="#m0e02982ee5" x="234.423891" y="17.598156" style="fill: #1f77b4; stroke: #1f77b4; stroke-width: 2; stroke-linejoin: bevel"/>
     <use xlink:href="#m0e02982ee5" x="238.931579" y="39.893774" style="fill: #1f77b4; stroke: #1f77b4; stroke-width: 2; stroke-linejoin: bevel"/>
     <use xlink:href="#m0e02982ee5" x="243.439266" y="25.988984" style="fill: #1f77b4; stroke: #1f77b4; stroke-width: 2; stroke-linejoin: bevel"/>
     <use xlink:href="#m0e02982ee5" x="247.946953" y="44.948616" style="fill: #1f77b4; stroke: #1f77b4; stroke-width: 2; stroke-linejoin: bevel"/>
     <use xlink:href="#m0e02982ee5" x="252.454641" y="44.92193" style="fill: #1f77b4; stroke: #1f77b4; stroke-width: 2; stroke-linejoin: bevel"/>
     <use xlink:href="#m0e02982ee5" x="256.962328" y="31.38888" style="fill: #1f77b4; stroke: #1f77b4; stroke-width: 2; stroke-linejoin: bevel"/>
     <use xlink:href="#m0e02982ee5" x="261.470016" y="51.946521" style="fill: #1f77b4; stroke: #1f77b4; stroke-width: 2; stroke-linejoin: bevel"/>
     <use xlink:href="#m0e02982ee5" x="265.977703" y="38.09777" style="fill: #1f77b4; stroke: #1f77b4; stroke-width: 2; stroke-linejoin: bevel"/>
    </g>
   </g>
   <g id="patch_3">
    <path d="M 52.989471 137.679435 
L 52.989471 11.88 
" style="fill: none; stroke: #000000; stroke-width: 0.8; stroke-linejoin: miter; stroke-linecap: square"/>
   </g>
   <g id="patch_4">
    <path d="M 276.12 137.679435 
L 276.12 11.88 
" style="fill: none; stroke: #000000; stroke-width: 0.8; stroke-linejoin: miter; stroke-linecap: square"/>
   </g>
   <g id="patch_5">
    <path d="M 52.989471 137.679435 
L 276.12 137.679435 
" style="fill: none; stroke: #000000; stroke-width: 0.8; stroke-linejoin: miter; stroke-linecap: square"/>
   </g>
   <g id="patch_6">
    <path d="M 52.989471 11.88 
L 276.12 11.88 
" style="fill: none; stroke: #000000; stroke-width: 0.8; stroke-linejoin: miter; stroke-linecap: square"/>
   </g>
   <g id="legend_1">
    <g id="patch_7">
     <path d="M 161.631108 133.679435 
L 270.52 133.679435 
Q 272.12 133.679435 272.12 132.079435 
L 272.12 120.929328 
Q 272.12 119.329328 270.52 119.329328 
L 161.631108 119.329328 
Q 160.031108 119.329328 160.031108 120.929328 
L 160.031108 132.079435 
Q 160.031108 133.679435 161.631108 133.679435 
z
" style="fill: #ffffff; opacity: 0.8; stroke: #cccccc; stroke-linejoin: miter"/>
    </g>
    <g id="line2d_42">
     <path d="M 163.231108 125.431912 
L 167.231108 125.431912 
L 171.231108 125.431912 
" style="fill: none; stroke: #1f77b4; stroke-width: 2; stroke-linecap: square"/>
     <g>
      <use xlink:href="#m0e02982ee5" x="167.231108" y="125.431912" style="fill: #1f77b4; stroke: #1f77b4; stroke-width: 2; stroke-linejoin: bevel"/>
     </g>
    </g>
    <g id="text_22">
     <!-- $m/n=4/2,\,f=10.0$ kHz -->
     <g transform="translate(177.631108 128.231912) scale(0.08 -0.08)">
      <defs>
       <path id="URWPalladioL-Ital-6d" d="M 4672 650 
L 4506 542 
C 4320 421 4179 351 4115 351 
C 4070 351 4032 408 4032 478 
C 4032 542 4045 600 4077 734 
L 4557 2631 
C 4582 2739 4602 2841 4602 2893 
C 4602 3002 4538 3072 4435 3072 
C 4250 3072 4006 2957 3616 2682 
C 3213 2394 2989 2171 2675 1730 
L 2867 2606 
C 2893 2733 2912 2829 2912 2874 
C 2912 2995 2848 3072 2746 3072 
C 2554 3072 2259 2932 1907 2663 
C 1626 2445 1498 2311 1082 1749 
L 1293 2599 
C 1318 2701 1331 2797 1331 2873 
C 1331 2995 1274 3072 1184 3072 
C 1050 3072 806 2938 333 2598 
L 154 2471 
L 198 2343 
L 403 2477 
C 640 2625 659 2637 704 2637 
C 774 2637 819 2574 819 2478 
C 819 2152 557 919 294 6 
L 314 -64 
L 749 31 
L 890 683 
C 1043 1392 1216 1769 1568 2152 
C 1837 2446 2125 2637 2304 2637 
C 2349 2637 2374 2586 2374 2504 
C 2374 2280 2234 1552 1971 434 
L 1869 6 
L 1901 -64 
L 2342 31 
L 2477 715 
C 2579 1232 2797 1711 3078 2025 
C 3430 2414 3750 2637 3955 2637 
C 4006 2637 4038 2580 4038 2478 
C 4038 2324 4019 2235 3878 1679 
C 3776 1277 3667 894 3603 677 
C 3546 497 3520 332 3520 192 
C 3520 31 3590 -64 3712 -64 
C 3878 -64 4109 69 4736 536 
L 4672 650 
z
" transform="scale(0.015625)"/>
       <path id="URWPalladioL-Ital-6e" d="M 154 2471 
L 198 2343 
L 403 2477 
C 640 2625 659 2637 704 2637 
C 774 2637 819 2574 819 2478 
C 819 2152 557 919 294 6 
L 339 -64 
C 499 -20 646 18 787 44 
C 909 849 1043 1264 1338 1705 
C 1683 2241 2163 2637 2451 2637 
C 2522 2637 2560 2580 2560 2484 
C 2560 2369 2541 2235 2490 2031 
L 2157 677 
C 2099 440 2074 294 2074 192 
C 2074 31 2144 -64 2266 -64 
C 2432 -64 2662 69 3290 536 
L 3226 651 
L 3059 543 
C 2874 421 2733 351 2669 351 
C 2624 351 2586 408 2586 478 
C 2586 510 2592 581 2598 607 
L 3021 2369 
C 3066 2555 3091 2733 3091 2841 
C 3091 2989 3021 3072 2893 3072 
C 2624 3072 2182 2830 1805 2478 
C 1562 2254 1382 2037 1050 1571 
L 1293 2599 
C 1318 2714 1331 2790 1331 2861 
C 1331 2995 1280 3072 1184 3072 
C 1050 3072 800 2932 333 2599 
L 154 2471 
z
" transform="scale(0.015625)"/>
       <path id="CMR10-3d" d="M 4397 2048 
C 4493 2048 4614 2048 4614 2177 
C 4614 2305 4493 2305 4403 2305 
L 570 2305 
C 480 2305 358 2305 358 2177 
C 358 2048 480 2048 576 2048 
L 4397 2048 
z
M 4403 832 
C 4493 832 4614 832 4614 961 
C 4614 1089 4493 1089 4397 1089 
L 576 1089 
C 480 1089 358 1089 358 961 
C 358 832 480 832 570 832 
L 4403 832 
z
" transform="scale(0.015625)"/>
       <path id="URWPalladioL-Roma-2c" d="M 1306 789 
C 1133 731 1018 693 678 596 
C 634 109 474 -308 102 -923 
L 192 -994 
L 454 -872 
C 973 -199 1216 205 1395 699 
L 1306 789 
z
" transform="scale(0.015625)"/>
       <path id="URWPalladioL-Ital-66" d="M 1830 2472 
C 1856 2593 1901 2740 1939 2829 
L 1914 2873 
L 1869 2861 
C 1715 2822 1645 2816 1331 2816 
L 1229 2816 
L 1363 3530 
C 1466 4078 1645 4320 1939 4320 
C 2131 4320 2304 4224 2400 4071 
L 2464 4096 
C 2496 4198 2560 4397 2611 4525 
L 2643 4621 
C 2541 4666 2342 4704 2195 4704 
C 2125 4704 2022 4685 1971 4660 
C 1818 4590 1293 4201 1146 4047 
C 1005 3907 928 3716 858 3352 
L 762 2848 
C 499 2720 371 2669 211 2612 
L 179 2472 
L 698 2472 
L 640 2115 
C 448 872 211 -313 70 -753 
C -45 -1129 -237 -1326 -467 -1326 
C -614 -1326 -685 -1282 -800 -1141 
L -890 -1166 
C -915 -1313 -1005 -1620 -1037 -1677 
C -979 -1709 -883 -1728 -813 -1728 
C -550 -1728 -205 -1530 45 -1231 
C 435 -772 576 -326 1043 1911 
C 1062 1988 1114 2230 1165 2472 
L 1830 2472 
z
" transform="scale(0.015625)"/>
       <path id="URWPalladioL-Roma-6b" d="M 147 4256 
L 506 4256 
C 621 4256 666 4185 666 3992 
L 666 651 
C 666 244 646 199 429 199 
L 134 199 
L 134 0 
C 774 0 774 0 941 0 
C 1120 0 1152 0 1722 0 
L 1722 199 
L 1440 199 
C 1222 199 1203 244 1203 652 
L 1203 1546 
L 2899 -64 
L 3514 122 
L 3514 270 
C 3360 270 3174 379 2970 576 
L 2163 1374 
C 1933 1597 1862 1681 1754 1808 
L 2579 2449 
C 2880 2677 3053 2752 3270 2752 
L 3270 2944 
L 2630 2944 
C 2221 2536 1920 2255 1670 2057 
L 1203 1680 
L 1203 4621 
L 1146 4673 
C 864 4564 653 4512 147 4435 
L 147 4256 
z
" transform="scale(0.015625)"/>
       <path id="URWPalladioL-Roma-7a" d="M 2912 2764 
L 2912 2944 
C 2464 2944 2272 2944 2029 2944 
L 442 2944 
C 429 2624 422 2549 384 2115 
L 576 2115 
L 653 2547 
C 678 2681 794 2713 1267 2713 
L 2182 2713 
C 2048 2503 1939 2357 1766 2141 
L 678 794 
C 525 609 435 501 102 127 
L 141 0 
C 806 0 845 0 1120 0 
L 2886 0 
C 2886 145 2899 297 2944 602 
L 2982 899 
L 2790 899 
L 2675 397 
C 2650 282 2381 237 1766 237 
L 902 237 
L 2912 2764 
z
" transform="scale(0.015625)"/>
      </defs>
      <use xlink:href="#URWPalladioL-Ital-6d" transform="scale(0.996264)"/>
      <use xlink:href="#URWPalladioL-Roma-2f" transform="translate(80.000033 0) scale(0.996264)"/>
      <use xlink:href="#URWPalladioL-Ital-6e" transform="translate(142.864238 0) scale(0.996264)"/>
      <use xlink:href="#CMR10-3d" transform="translate(228.421131 0) scale(1.038107)"/>
      <use xlink:href="#URWPalladioL-Roma-34" transform="translate(338.03676 0) scale(0.996264)"/>
      <use xlink:href="#URWPalladioL-Roma-2f" transform="translate(389.09526 0) scale(0.996264)"/>
      <use xlink:href="#URWPalladioL-Roma-32" transform="translate(450.714165 0) scale(0.996264)"/>
      <use xlink:href="#URWPalladioL-Roma-2c" transform="translate(500.527365 0) scale(0.996264)"/>
      <use xlink:href="#URWPalladioL-Ital-66" transform="translate(572.839431 0) scale(0.996264)"/>
      <use xlink:href="#CMR10-3d" transform="translate(644.149685 0) scale(1.038107)"/>
      <use xlink:href="#URWPalladioL-Roma-31" transform="translate(753.765314 0) scale(0.996264)"/>
      <use xlink:href="#URWPalladioL-Roma-30" transform="translate(803.578515 0) scale(0.996264)"/>
      <use xlink:href="#URWPalladioL-Roma-2e" transform="translate(853.391715 0) scale(0.996264)"/>
      <use xlink:href="#URWPalladioL-Roma-30" transform="translate(878.298316 0) scale(0.996264)"/>
      <use xlink:href="#URWPalladioL-Roma-6b" transform="translate(953.018116 0) scale(0.996264)"/>
      <use xlink:href="#URWPalladioL-Roma-48" transform="translate(1008.409793 0) scale(0.996264)"/>
      <use xlink:href="#URWPalladioL-Roma-7a" transform="translate(1091.298454 0) scale(0.996264)"/>
     </g>
    </g>
   </g>
  </g>
 </g>
 <defs>
  <clipPath id="p62ce0c8406">
   <rect x="52.989471" y="11.88" width="223.130529" height="125.799435"/>
  </clipPath>
 </defs>
</svg>
